<?xml version="1.0" encoding="iso-8859-1"?>
<!-- Generator: Adobe Illustrator 16.0.0, SVG Export Plug-In . SVG Version: 6.00 Build 0)  -->
<!DOCTYPE svg PUBLIC "-//W3C//DTD SVG 1.1//EN" "http://www.w3.org/Graphics/SVG/1.1/DTD/svg11.dtd">
<svg version="1.1" id="Capa_1" xmlns="http://www.w3.org/2000/svg" xmlns:xlink="http://www.w3.org/1999/xlink" x="0px" y="0px"
	 width="37.666px" height="37.667px" viewBox="0 0 37.666 37.667" style="enable-background:new 0 0 37.666 37.667;"
	 xml:space="preserve">
<g>
	<path d="M36.166,5.333H33.5V2.167c0-0.829-0.672-1.5-1.5-1.5H5.667c-0.829,0-1.5,0.671-1.5,1.5v3.167H1.5
		c-0.829,0-1.5,0.671-1.5,1.5v4.99c0,0.829,0.671,1.5,1.5,1.5s1.5-0.671,1.5-1.5v-3.49h1.167v13.319v10.015
		c0,0.828,0.671,1.5,1.5,1.5h0.312V35.5c0,0.828,0.671,1.5,1.5,1.5h3.103c0.829,0,1.5-0.672,1.5-1.5v-2.332h13.502V35.5
		c0,0.828,0.672,1.5,1.5,1.5h3.104c0.828,0,1.5-0.672,1.5-1.5v-2.332H32c0.828,0,1.5-0.672,1.5-1.5V21.653V8.333h1.166v3.49
		c0,0.829,0.672,1.5,1.5,1.5c0.829,0,1.5-0.671,1.5-1.5v-4.99C37.666,6.004,36.995,5.333,36.166,5.333z M10.329,30.337
		c-1.437,0-2.602-1.164-2.602-2.603c0-1.438,1.165-2.602,2.602-2.602c1.438,0,2.603,1.164,2.603,2.602
		C12.932,29.173,11.767,30.337,10.329,30.337z M27.329,30.337c-1.438,0-2.603-1.164-2.603-2.603c0-1.438,1.164-2.602,2.603-2.602
		s2.604,1.164,2.604,2.602C29.934,29.173,28.768,30.337,27.329,30.337z M30.5,6.833v13.319H7.167V6.833V3.667H30.5V6.833z"/>
</g>
<g>
</g>
<g>
</g>
<g>
</g>
<g>
</g>
<g>
</g>
<g>
</g>
<g>
</g>
<g>
</g>
<g>
</g>
<g>
</g>
<g>
</g>
<g>
</g>
<g>
</g>
<g>
</g>
<g>
</g>
</svg>
